<svg width="500" height="112" viewBox="0 0 500 112" fill="none" xmlns="http://www.w3.org/2000/svg">
<path d="M87.9091 51.8182H62.2727C62.0909 49.697 61.6061 47.7727 60.8182 46.0455C60.0606 44.3182 59 42.8333 57.6364 41.5909C56.303 40.3182 54.6818 39.3485 52.7727 38.6818C50.8636 37.9848 48.697 37.6364 46.2727 37.6364C42.0303 37.6364 38.4394 38.6667 35.5 40.7273C32.5909 42.7879 30.3788 45.7424 28.8636 49.5909C27.3788 53.4394 26.6364 58.0606 26.6364 63.4545C26.6364 69.1515 27.3939 73.9242 28.9091 77.7727C30.4545 81.5909 32.6818 84.4697 35.5909 86.4091C38.5 88.3182 42 89.2727 46.0909 89.2727C48.4242 89.2727 50.5152 88.9848 52.3636 88.4091C54.2121 87.803 55.8182 86.9394 57.1818 85.8182C58.5455 84.697 59.6515 83.3485 60.5 81.7727C61.3788 80.1667 61.9697 78.3636 62.2727 76.3636L87.9091 76.5455C87.6061 80.4848 86.5 84.5 84.5909 88.5909C82.6818 92.6515 79.9697 96.4091 76.4545 99.8636C72.9697 103.288 68.6515 106.045 63.5 108.136C58.3485 110.227 52.3636 111.273 45.5455 111.273C37 111.273 29.3333 109.439 22.5455 105.773C15.7879 102.106 10.4394 96.7121 6.5 89.5909C2.59091 82.4697 0.636364 73.7576 0.636364 63.4545C0.636364 53.0909 2.63636 44.3636 6.63636 37.2727C10.6364 30.1515 16.0303 24.7727 22.8182 21.1364C29.6061 17.4697 37.1818 15.6364 45.5455 15.6364C51.4242 15.6364 56.8333 16.4394 61.7727 18.0454C66.7121 19.6515 71.0455 22 74.7727 25.0909C78.5 28.1515 81.5 31.9242 83.7727 36.4091C86.0455 40.8939 87.4242 46.0303 87.9091 51.8182ZM133.193 111.273C125.739 111.273 119.314 109.848 113.92 107C108.557 104.121 104.42 100 101.511 94.6364C98.6326 89.2424 97.1932 82.7879 97.1932 75.2727C97.1932 68.0606 98.6477 61.7576 101.557 56.3636C104.466 50.9697 108.572 46.7727 113.875 43.7727C119.178 40.7727 125.436 39.2727 132.648 39.2727C137.92 39.2727 142.693 40.0909 146.966 41.7273C151.239 43.3636 154.89 45.7424 157.92 48.8636C160.951 51.9545 163.284 55.7121 164.92 60.1364C166.557 64.5606 167.375 69.5455 167.375 75.0909V80.9091H105.011V67.0909H144.284C144.254 65.0909 143.739 63.3333 142.739 61.8182C141.769 60.2727 140.451 59.0758 138.784 58.2273C137.148 57.3485 135.284 56.9091 133.193 56.9091C131.163 56.9091 129.299 57.3485 127.602 58.2273C125.905 59.0758 124.542 60.2576 123.511 61.7727C122.511 63.2879 121.981 65.0606 121.92 67.0909V82C121.92 84.2424 122.39 86.2424 123.33 88C124.269 89.7576 125.617 91.1364 127.375 92.1364C129.133 93.1364 131.254 93.6364 133.739 93.6364C135.466 93.6364 137.042 93.3939 138.466 92.9091C139.92 92.4242 141.163 91.7273 142.193 90.8182C143.223 89.8788 143.981 88.7576 144.466 87.4545H167.375C166.587 92.303 164.723 96.5152 161.784 100.091C158.845 103.636 154.951 106.394 150.102 108.364C145.284 110.303 139.648 111.273 133.193 111.273ZM202.705 70.7273V110H177.614V40.1818H201.432V53.4545H202.159C203.674 49.0303 206.341 45.5606 210.159 43.0455C214.008 40.5303 218.492 39.2727 223.614 39.2727C228.553 39.2727 232.841 40.4091 236.477 42.6818C240.144 44.9242 242.977 48.0151 244.977 51.9545C247.008 55.8939 248.008 60.3939 247.977 65.4545V110H222.886V70.7273C222.917 67.2727 222.038 64.5606 220.25 62.5909C218.492 60.6212 216.038 59.6364 212.886 59.6364C210.826 59.6364 209.023 60.0909 207.477 61C205.962 61.8788 204.795 63.1515 203.977 64.8182C203.159 66.4545 202.735 68.4242 202.705 70.7273ZM302 40.1818V58.3636H256V40.1818H302ZM264.909 23.4545H290V87.5455C290 88.5152 290.167 89.3333 290.5 90C290.833 90.6364 291.348 91.1212 292.045 91.4545C292.742 91.7576 293.636 91.9091 294.727 91.9091C295.485 91.9091 296.364 91.8182 297.364 91.6364C298.394 91.4545 299.152 91.303 299.636 91.1818L303.273 108.818C302.152 109.152 300.545 109.561 298.455 110.045C296.394 110.53 293.939 110.848 291.091 111C285.333 111.303 280.5 110.712 276.591 109.227C272.682 107.712 269.742 105.333 267.773 102.091C265.803 98.8485 264.848 94.7879 264.909 89.9091V23.4545ZM312.239 110V40.1818H337.33V110H312.239ZM324.784 32.9091C321.39 32.9091 318.481 31.7879 316.057 29.5455C313.633 27.303 312.42 24.6061 312.42 21.4545C312.42 18.303 313.633 15.6061 316.057 13.3636C318.481 11.1212 321.39 10 324.784 10C328.208 10 331.117 11.1212 333.511 13.3636C335.936 15.6061 337.148 18.303 337.148 21.4545C337.148 24.6061 335.936 27.303 333.511 29.5455C331.117 31.7879 328.208 32.9091 324.784 32.9091ZM383.75 111.273C376.174 111.273 369.689 109.773 364.295 106.773C358.902 103.742 354.765 99.5303 351.886 94.1364C349.008 88.7121 347.568 82.4242 347.568 75.2727C347.568 68.1212 349.008 61.8485 351.886 56.4545C354.765 51.0303 358.902 46.8182 364.295 43.8182C369.689 40.7879 376.174 39.2727 383.75 39.2727C390.598 39.2727 396.523 40.5152 401.523 43C406.553 45.4545 410.447 48.9394 413.205 53.4545C415.962 57.9394 417.356 63.2121 417.386 69.2727H394.114C393.78 65.6061 392.72 62.8182 390.932 60.9091C389.174 58.9697 386.902 58 384.114 58C381.932 58 380.023 58.6364 378.386 59.9091C376.75 61.1515 375.477 63.0455 374.568 65.5909C373.659 68.1061 373.205 71.2727 373.205 75.0909C373.205 78.9091 373.659 82.0909 374.568 84.6364C375.477 87.1515 376.75 89.0455 378.386 90.3182C380.023 91.5606 381.932 92.1818 384.114 92.1818C385.962 92.1818 387.598 91.7576 389.023 90.9091C390.447 90.0303 391.598 88.7576 392.477 87.0909C393.386 85.3939 393.932 83.3333 394.114 80.9091H417.386C417.295 87.0606 415.886 92.4242 413.159 97C410.432 101.545 406.568 105.061 401.568 107.545C396.598 110.03 390.659 111.273 383.75 111.273ZM450.284 93.4545L450.466 63.6364H453.739L470.648 40.1818H498.83L470.466 76.7273H463.375L450.284 93.4545ZM427.739 110V16.9091H452.83V110H427.739ZM470.83 110L454.83 82.3636L471.193 64.5455L499.557 110H470.83Z" fill="black"/>
<circle cx="325" cy="18" r="18" fill="#502CF2"/>
</svg>
